<?xml version="1.0" encoding="utf-8"?>
<!-- Generator: Adobe Illustrator 24.0.2, SVG Export Plug-In . SVG Version: 6.00 Build 0)  -->
<svg version="1.1" id="Capa_1" xmlns="http://www.w3.org/2000/svg" xmlns:xlink="http://www.w3.org/1999/xlink" x="0px" y="0px"
	 viewBox="0 0 24 24" style="enable-background:new 0 0 24 24;" xml:space="preserve">
<style type="text/css">
	.st0{fill-rule:evenodd;clip-rule:evenodd;}
</style>
<path d="M12,2c5.5,0,10,4.5,10,10s-4.5,10-10,10S2,17.5,2,12S6.5,2,12,2z M12,0C5.4,0,0,5.4,0,12s5.4,12,12,12s12-5.4,12-12
	S18.6,0,12,0z"/>
<path class="st0" d="M7.1,18.6h10.5V5.9h-0.6v12.2h-10V18.6z M16.5,5.4h-10v12.2h10V5.4z M14.9,14.8H8.2v0.6h6.6V14.8z M14.9,13.1
	H8.2v0.6h6.6V13.1z M14.9,11.4H8.2V12h6.6V11.4z M10.8,9.3l0.5,0.2c-0.1,0.3-0.2,0.5-0.4,0.7c-0.2,0.1-0.4,0.2-0.7,0.2
	c-0.4,0-0.6-0.1-0.9-0.4C9.1,9.7,9,9.4,9,9c0-0.4,0.1-0.8,0.3-1s0.5-0.4,0.9-0.4c0.3,0,0.6,0.1,0.8,0.3c0.1,0.1,0.2,0.3,0.3,0.5
	l-0.5,0.1c0-0.1-0.1-0.2-0.2-0.3C10.5,8.1,10.4,8,10.2,8C10,8,9.9,8.1,9.7,8.2C9.6,8.4,9.6,8.6,9.6,8.9c0,0.3,0.1,0.6,0.2,0.7
	c0.1,0.1,0.3,0.2,0.5,0.2c0.1,0,0.3,0,0.4-0.1C10.7,9.7,10.8,9.5,10.8,9.3z M12.5,10.3l-1-2.7h0.6l0.7,2l0.7-2H14l-1,2.7
	C13.1,10.3,12.5,10.3,12.5,10.3z"/>
</svg>
